<?xml version="1.0" encoding="UTF-8" standalone="no"?>
<svg
   inkscape:export-ydpi="394.54666"
   inkscape:export-xdpi="394.54666"
   inkscape:export-filename="/Users/celineauzias/Dropbox/artwork/N2I/2020/n2i2020_affiche_hd.png"
   width="498.26379"
   height="224.88271"
   viewBox="0 0 131.83229 59.500218"
   version="1.1"
   id="svg1295"
   inkscape:version="1.1.1 (c3084ef, 2021-09-22)"
   sodipodi:docname="N2I2024-couleurs.svg"
   xmlns:inkscape="http://www.inkscape.org/namespaces/inkscape"
   xmlns:sodipodi="http://sodipodi.sourceforge.net/DTD/sodipodi-0.dtd"
   xmlns="http://www.w3.org/2000/svg"
   xmlns:svg="http://www.w3.org/2000/svg"
   xmlns:rdf="http://www.w3.org/1999/02/22-rdf-syntax-ns#"
   xmlns:cc="http://creativecommons.org/ns#"
   xmlns:dc="http://purl.org/dc/elements/1.1/">
  <defs
     id="defs1289">
    <style
       id="style466654">.cls-1{fill:none}.cls-5{opacity:.45}</style>
    <style
       id="style6517">.cls-1{fill:none}.cls-5{opacity:.45}</style>
    <filter
       inkscape:collect="always"
       style="color-interpolation-filters:sRGB"
       id="filter18108"
       x="-0.029345258"
       width="1.0586905"
       y="-0.1457038"
       height="1.2914076">
      <feGaussianBlur
         inkscape:collect="always"
         stdDeviation="2.5063178"
         id="feGaussianBlur18110" />
    </filter>
  </defs>
  <sodipodi:namedview
     units="px"
     id="base"
     pagecolor="#ffffff"
     bordercolor="#666666"
     borderopacity="1.0"
     inkscape:pageopacity="0.0"
     inkscape:pageshadow="2"
     inkscape:zoom="1.1449303"
     inkscape:cx="16.158188"
     inkscape:cy="203.94254"
     inkscape:document-units="px"
     inkscape:current-layer="g60239"
     inkscape:document-rotation="0"
     showgrid="false"
     inkscape:window-width="1438"
     inkscape:window-height="855"
     inkscape:window-x="0"
     inkscape:window-y="23"
     inkscape:window-maximized="0"
     inkscape:snap-global="false"
     inkscape:pagecheckerboard="true"
     showguides="false"
     fit-margin-top="0"
     fit-margin-left="0"
     fit-margin-right="0"
     fit-margin-bottom="0">
    <inkscape:grid
       type="xygrid"
       id="grid3480"
       originx="-11.752927"
       originy="-97.138457" />
    <sodipodi:guide
       position="-1030.4396,-395.72029"
       orientation="1,0"
       id="guide18337" />
  </sodipodi:namedview>
  <metadata
     id="metadata1292">
    <rdf:RDF>
      <cc:Work
         rdf:about="">
        <dc:format>image/svg+xml</dc:format>
        <dc:type
           rdf:resource="http://purl.org/dc/dcmitype/StillImage" />
      </cc:Work>
    </rdf:RDF>
  </metadata>
  <g
     inkscape:label="Calque 1"
     inkscape:groupmode="layer"
     id="layer1"
     transform="translate(-11.752928,-97.138454)">
    <g
       id="g69201"
       transform="matrix(1.1292808,0,0,1.1292808,-13.87884,-18.867548)">
      <g
         id="g32989"
         transform="matrix(0.55711729,0,0,0.55711729,-0.77764504,65.531935)">
        <path
           style="fill:#f5d34b;fill-opacity:1;fill-rule:nonzero;stroke:none;stroke-width:2.54829;stroke-linecap:round;stroke-linejoin:round;stroke-miterlimit:4;stroke-dasharray:none;stroke-dashoffset:0;stroke-opacity:1"
           d="m 73.869519,67.996304 a 4.2221316,8.7853887 80.416557 0 0 -0.151517,0.0035 4.2221316,8.7853887 80.416557 0 0 -2.590713,0.244599 4.2221316,8.7853887 80.416557 0 0 -7.93406,4.750788 c -0.09014,0.203728 -0.124708,0.434216 -0.08608,0.671793 l 0.620113,3.837836 c 0.104775,0.646501 0.705889,1.084033 1.347047,0.978411 l 3.710356,-0.613232 1.040412,6.421665 c -4.859531,1.321877 -9.324092,3.539439 -13.184381,6.4561 l -2.156619,-2.638937 1.82245,-1.515851 c 0.329159,-0.27342 0.37793,-0.760183 0.106714,-1.092094 l -2.377104,-2.911106 c -0.169508,-0.207433 -0.422591,-0.302841 -0.668356,-0.279047 -0.147461,0.01411 -0.293404,0.06968 -0.416859,0.172334 l -7.63778,6.345872 c -0.329142,0.27342 -0.37793,0.760183 -0.106892,1.092094 l 2.380561,2.911104 c 0.271165,0.331894 0.752617,0.376767 1.081778,0.103364 l 1.825888,-1.512393 2.228974,2.728507 c -6.557276,6.543339 -10.586774,15.412829 -10.586774,25.180199 0,20.11477 17.094325,36.44223 38.157877,36.44223 14.328635,0 26.814466,-7.55433 33.338186,-18.71721 C 71.981929,151.23758 52.276537,101.37919 77.442029,83.120453 l 0.165278,-0.02752 -0.01411,-0.08608 c 0.0088,-0.0071 0.01834,-0.01411 0.02752,-0.02063 -0.01058,0 -0.0208,0.0017 -0.03104,0.0035 l -1.037009,-6.397626 3.555348,-0.585664 c 0.641139,-0.105659 1.072778,-0.710884 0.968057,-1.357365 l -0.59944,-3.696584 h 0.0035 a 4.2221316,8.7853887 80.416557 0 0 -0.0071,-0.02416 l -0.02063,-0.117122 c -0.02858,-0.175331 -0.09384,-0.334222 -0.186125,-0.471983 A 4.2221316,8.7853887 80.416557 0 0 73.86874,67.996563 Z m -2.005048,0.857831 c 0.02893,0.0017 0.04957,0.0071 0.06544,0.01411 -2.322991,0.633078 -6.518839,3.079928 -7.231259,4.39249 -0.578555,1.065936 -0.575327,2.601047 -0.575327,2.601047 0,0 -0.236042,-1.357469 -0.175683,-2.576934 0.1016,-2.053167 7.022042,-4.495959 7.916828,-4.430396 z M 60.392295,90.423871 c 1.468298,0.04092 2.605317,1.832733 2.545927,4.010096 -0.05927,2.177309 -1.294641,3.920084 -2.762973,3.87918 -1.468261,-0.04039 -2.605264,-1.85002 -2.54591,-4.027329 0.05927,-2.177327 1.294678,-3.902358 2.762956,-3.861947 z m 20.487994,0.530543 -0.151517,0.155045 -0.871626,0.878505 v 2.346114 l 0.620129,0.623552 0.403067,-0.409963 v -3.593236 z m -0.403084,4.065217 -0.06544,0.06209 -0.554654,0.561551 v 2.346114 l 1.023197,1.030076 v -3.57946 l -0.403084,-0.4203 z m 8.929689,4.836919 0.148167,0.15505 0.844056,0.86127 h 2.762956 l 0.995643,-1.016303 h -4.750788 z m 4.781796,0.02752 -0.155044,0.15504 -0.844056,0.86471 v 2.30477 l 0.609775,0.61323 0.389308,-0.40308 v -3.534652 z m -4.812806,0.0035 v 0.21703 3.31419 l 0.396189,0.40309 0.609775,-0.61324 v -2.30477 z m -32.170302,1.83969 c 1.74246,0.0482 3.098642,2.18429 3.028245,4.768 -0.07038,2.58375 -1.540792,4.63707 -3.283179,4.58886 -1.742299,-0.0482 -3.095255,-2.18083 -3.024787,-4.76456 0.07038,-2.58367 1.537422,-4.64053 3.279721,-4.5923 z m 32.566491,2.14974 -0.06209,0.069 -0.334171,0.34794 v 3.52088 l 1.005964,-1.0163 v -2.30477 l -0.609775,-0.61667 z m 4.030769,0 -0.06544,0.0654 -0.547777,0.55121 v 2.30477 l 0.999087,1.01974 v -3.52434 L 93.802859,103.877 Z m -3.403761,2.95243 -0.02416,0.0275 -0.971516,0.98874 h 4.754228 l -0.995626,-1.0163 h -2.762973 z m -44.128233,4.05834 c 0.887253,7.63612 3.947019,15.00528 8.719538,21.0013 -1.005927,0.73815 -1.760714,1.7714 -1.99815,3.03513 -0.328456,1.74847 0.423844,3.43372 1.660542,4.67843 1.236768,1.24467 2.976208,2.14076 4.988489,2.52525 2.012369,0.38425 3.957848,0.19232 5.560377,-0.50987 0.181576,-0.0794 0.36405,-0.16351 0.537441,-0.25837 1.798583,1.1029 3.690691,2.06645 5.63617,2.87665 -0.06562,-0.29225 -0.09207,-0.57254 -0.03792,-0.86128 0.388056,-2.06538 3.860024,-3.15354 7.744585,-2.41156 3.884383,0.74195 6.720135,3.03334 6.332079,5.09873 -0.08449,0.44992 -0.322811,0.85168 -0.671796,1.1989 5.156449,0.24397 10.355265,-0.50255 15.237673,-2.19452 -7.525349,6.45297 -17.995142,9.26417 -27.705475,7.43451 -8.570297,-1.6371 -16.40609,-6.83248 -21.318239,-14.10078 -4.912061,-7.26835 -6.839108,-16.52104 -5.215873,-25.16297 0.148872,-0.78913 0.326125,-1.5733 0.530544,-2.34955 z m 58.339252,1.80867 -0.15505,0.15505 -1.1851,1.19544 v 3.19705 l 0.81649,0.82338 0.52364,-0.5271 v -4.8438 z m -21.042649,5.46391 0.151519,0.15505 1.333252,1.36426 h 4.371834 l 1.484842,-1.51929 h -7.341501 z m 20.519009,0.0861 -0.0621,0.0654 -0.75449,0.75793 v 3.19705 l 1.34015,1.35048 v -4.82658 l -0.52366,-0.54434 z m -13.053472,0.0344 -0.155047,0.15504 -1.333252,1.36426 v 3.64147 l 0.923273,0.92672 0.565009,-0.5891 v -5.49838 z m -7.589557,0.004 v 0.21705 5.27789 l 0.585665,0.58911 0.91985,-0.92673 v -3.64146 z m 7.024548,6.3252 -0.06544,0.0654 -0.857815,0.86473 v 3.64146 l 1.488282,1.51929 v -5.4777 L 90.467997,124.61 Z m -6.438883,0.004 -0.06544,0.0654 -0.520206,0.54432 v 5.47771 l 1.505514,-1.51928 v -3.64148 l -0.919852,-0.92673 z m 1.023197,4.69223 -0.02416,0.0242 -1.460711,1.49172 h 7.341498 l -1.484842,-1.51584 h -4.371834 z m -24.015755,2.78363 c 0.517192,-0.0106 1.053854,0.0332 1.601964,0.13776 2.923116,0.55834 4.98946,2.62932 4.612976,4.63366 -0.376572,2.00438 -3.050682,3.1732 -5.973798,2.61483 -2.923151,-0.55836 -4.989549,-2.63275 -4.612977,-4.63711 0.305949,-1.62853 2.130728,-2.70243 4.371835,-2.74918 z"
           id="path13688"
           inkscape:connector-curvature="0" />
        <path
           id="path13692"
           d="m 81.407551,81.610406 a 1.4160045,1.4278336 0 0 0 -1.415926,1.428078 1.4160045,1.4278336 0 0 0 1.415926,1.427782 1.4160045,1.4278336 0 0 0 1.416281,-1.427782 1.4160045,1.4278336 0 0 0 -1.416281,-1.428078 z m 7.003875,0.855926 a 1.4160045,1.4278336 0 0 0 -1.415926,1.427763 1.4160045,1.4278336 0 0 0 1.415926,1.427762 1.4160045,1.4278336 0 0 0 1.415909,-1.427762 1.4160045,1.4278336 0 0 0 -1.415909,-1.427763 z m 6.761181,1.73267 a 1.4160045,1.4278336 0 0 0 -1.415945,1.427779 1.4160045,1.4278336 0 0 0 1.415945,1.427745 1.4160045,1.4278336 0 0 0 1.415926,-1.427745 1.4160045,1.4278336 0 0 0 -1.415926,-1.427779 z m 7.525523,0.547881 c -0.28792,0.01236 -0.56772,0.151341 -0.75528,0.402801 l -4.461806,5.982477 c -0.333412,0.447022 -0.245006,1.077471 0.198312,1.413669 l 0.961638,0.729561 c 0.443335,0.33618 1.068564,0.247016 1.401976,-0.200007 l 4.46218,-5.982476 c 0.33339,-0.447023 0.24497,-1.077842 -0.19835,-1.414039 l -0.96197,-0.729193 c -0.19398,-0.147108 -0.42275,-0.21292 -0.6467,-0.202793 z m 3.83646,7.221149 c -0.78196,5.3e-5 -1.41587,0.639269 -1.41593,1.42778 6e-5,0.788494 0.63397,1.427692 1.41593,1.427745 0.78199,-3.5e-5 1.41586,-0.639234 1.41591,-1.427745 -5e-5,-0.788529 -0.63392,-1.427744 -1.41591,-1.42778 z m 4.65806,5.037826 a 1.4160045,1.4278336 0 0 0 -1.41593,1.427762 1.4160045,1.4278336 0 0 0 1.41593,1.427745 1.4160045,1.4278336 0 0 0 1.41628,-1.427745 1.4160045,1.4278336 0 0 0 -1.41628,-1.427762 z m 3.68385,6.637042 a 1.4160045,1.4278336 0 0 0 -1.41593,1.42776 1.4160045,1.4278336 0 0 0 1.41593,1.42774 1.4160045,1.4278336 0 0 0 1.41594,-1.42774 1.4160045,1.4278336 0 0 0 -1.41594,-1.42776 z m 5.84249,6.19973 c -0.0667,-0.002 -0.13441,0.005 -0.20253,0.0176 l -7.29507,1.38585 c -0.54511,0.10354 -0.90128,0.62952 -0.79858,1.1792 l 0.22277,1.19254 c 0.10266,0.54967 0.6243,0.9088 1.16941,0.80526 l 7.29507,-1.38587 c 0.54513,-0.10354 0.9013,-0.62952 0.79859,-1.17916 l -0.22278,-1.19259 c -0.0898,-0.48094 -0.50047,-0.81594 -0.96688,-0.82283 z m -2.82488,7.77009 a 1.4160045,1.4278336 0 0 0 -1.41591,1.42776 1.4160045,1.4278336 0 0 0 1.41591,1.42775 1.4160045,1.4278336 0 0 0 1.41628,-1.42775 1.4160045,1.4278336 0 0 0 -1.41628,-1.42776 z m -0.5482,6.91836 a 1.4160045,1.4278336 0 0 0 -1.41593,1.42775 1.4160045,1.4278336 0 0 0 1.41593,1.42778 1.4160045,1.4278336 0 0 0 1.41628,-1.42778 1.4160045,1.4278336 0 0 0 -1.41628,-1.42775 z m -2.2379,6.9402 a 1.4160045,1.4278336 0 0 0 -1.41593,1.42776 1.4160045,1.4278336 0 0 0 1.41593,1.42775 1.4160045,1.4278336 0 0 0 1.41593,-1.42775 1.4160045,1.4278336 0 0 0 -1.41593,-1.42776 z"
           style="font-style:normal;font-variant:normal;font-weight:normal;font-stretch:normal;font-size:medium;line-height:100%;font-family:DS-Digital;-inkscape-font-specification:DS-Digital;text-align:start;writing-mode:lr-tb;text-anchor:start;fill:#ffffff;fill-opacity:1;stroke:none;stroke-width:0.269111;stroke-miterlimit:4;stroke-dasharray:none;stroke-opacity:1"
           inkscape:connector-curvature="0" />
      </g>
      <path
         style="fill:#001724;fill-opacity:1;stroke:none;stroke-width:0.214993px;stroke-linecap:butt;stroke-linejoin:miter;stroke-opacity:1"
         d="m 74.925424,132.47743 c 0,0 58.504686,-6.09692 59.319996,-2.50783 0.81531,3.5891 3.69391,20.40108 2.2384,20.49989 -1.4555,0.0988 -55.133315,5.81824 -59.208291,4.62615 -2.375101,-0.69483 -5.936134,-21.71645 -2.35014,-22.61821 z"
         id="path56068"
         sodipodi:nodetypes="cssscc" />
      <g
         id="g60221"
         transform="translate(0,-1.0583333)">
        <g
           transform="matrix(0.18404716,0,0,0.18529782,1214.4917,-1232.9325)"
           style="font-style:normal;font-variant:normal;font-weight:bold;font-stretch:normal;font-size:56.7081px;line-height:100%;font-family:Raleway;-inkscape-font-specification:'Raleway, Bold';text-align:center;writing-mode:lr-tb;text-anchor:middle;fill:#00eba7;fill-opacity:1;fill-rule:nonzero;stroke:none;stroke-width:14.7742;stroke-linecap:round;stroke-linejoin:round;stroke-miterlimit:4;stroke-dasharray:none;stroke-dashoffset:0;stroke-opacity:1;filter:url(#filter18108)"
           id="g18036">
          <path
             inkscape:connector-curvature="0"
             d="m -6207.571,7260.896 v -40.2628 h 7.8257 v 33.4011 h 20.5283 v 6.8617 z"
             id="path18038"
             style="fill:#00eba7;fill-opacity:1;stroke-width:14.7742" />
          <path
             inkscape:connector-curvature="0"
             d="m -6162.9993,7220.6332 h 6.9184 l 15.3112,40.2628 h -8.0526 l -3.7427,-10.0373 h -14.0636 l -3.6861,10.0373 h -8.0525 z m 9.0166,24.7248 -5.5574,-15.8216 -5.7842,15.8216 z"
             id="path18040"
             style="fill:#00eba7;fill-opacity:1;stroke-width:14.7742" />
          <path
             inkscape:connector-curvature="0"
             d="m -6116.6767,7235.0938 v 25.8022 h -7.8258 v -40.2628 h 6.0678 l 20.982,26.426 v -26.3693 h 7.8258 v 40.2061 h -6.3514 z"
             id="path18042"
             style="fill:#00eba7;fill-opacity:1;stroke-width:14.7742" />
          <path
             inkscape:connector-curvature="0"
             d="m -6064.1836,7254.2611 q 2.7787,0 4.6501,-1.1341 1.9281,-1.1342 3.0622,-2.9488 1.1909,-1.8147 1.6446,-4.1397 0.5103,-2.3818 0.5103,-4.8769 v -20.5284 h 7.769 v 20.5284 q 0,4.1397 -1.0207,7.769 -0.964,3.6293 -3.1189,6.3513 -2.0983,2.722 -5.444,4.3098 -3.3458,1.5878 -7.9959,1.5878 -4.8202,0 -8.2227,-1.6445 -3.3457,-1.7012 -5.4439,-4.4232 -2.0982,-2.7787 -3.0623,-6.4081 -0.9073,-3.6293 -0.9073,-7.5421 v -20.5284 h 7.8257 v 20.5284 q 0,2.5518 0.4537,4.9336 0.5103,2.325 1.6445,4.1397 1.1909,1.8146 3.0623,2.9488 1.8713,1.0774 4.5933,1.0774 z"
             id="path18044"
             style="fill:#00eba7;fill-opacity:1;stroke-width:14.7742" />
          <path
             inkscape:connector-curvature="0"
             d="m -6038.6649,7260.896 v -40.2628 h 7.8257 v 40.2628 z"
             id="path18046"
             style="fill:#00eba7;fill-opacity:1;stroke-width:14.7742" />
          <path
             inkscape:connector-curvature="0"
             d="m -5992.3822,7227.4949 h -12.8728 v 33.4011 h -7.769 v -33.4011 h -12.8727 v -6.8617 h 33.5145 z"
             id="path18048"
             style="fill:#00eba7;fill-opacity:1;stroke-width:14.7742" />
          <path
             inkscape:connector-curvature="0"
             d="m -5975.3113,7260.896 v -40.2628 h 14.6307 q 4.9336,0 8.6197,1.5878 3.7427,1.5879 6.2379,4.3099 2.4951,2.7219 3.7427,6.408 1.2476,3.6293 1.2476,7.769 0,4.5934 -1.4177,8.3361 -1.361,3.686 -3.9696,6.3513 -2.6086,2.6086 -6.2946,4.083 -3.6293,1.4177 -8.166,1.4177 z m 26.5961,-20.1881 q 0,-2.8921 -0.7939,-5.3306 -0.7939,-2.4384 -2.325,-4.1964 -1.5311,-1.7579 -3.7995,-2.722 -2.2116,-0.964 -5.047,-0.964 h -6.805 v 26.5394 h 6.805 q 2.8921,0 5.1038,-1.0207 2.2683,-1.0208 3.7427,-2.7787 1.5311,-1.8147 2.325,-4.2531 0.7939,-2.4385 0.7939,-5.2739 z"
             id="path18050"
             style="fill:#00eba7;fill-opacity:1;stroke-width:14.7742" />
          <path
             inkscape:connector-curvature="0"
             d="m -5906.8167,7254.0343 v 6.8617 h -27.9571 v -40.2628 h 27.4467 v 6.8617 h -19.621 v 9.6971 h 16.9557 v 6.3513 h -16.9557 v 10.491 z"
             id="path18052"
             style="fill:#00eba7;fill-opacity:1;stroke-width:14.7742" />
          <path
             inkscape:connector-curvature="0"
             d="m -5887.0371,7260.896 v -40.2628 h 7.8257 v 33.4011 h 20.5284 v 6.8617 z"
             id="path18054"
             style="fill:#00eba7;fill-opacity:1;stroke-width:14.7742" />
          <path
             inkscape:connector-curvature="0"
             d="m -5859.3095,7232.5986 v -12.7026 h 6.4648 v 12.7026 z"
             id="path18056"
             style="fill:#00eba7;fill-opacity:1;stroke-width:14.7742" />
        </g>
        <g
           id="g17910"
           style="font-style:normal;font-variant:normal;font-weight:bold;font-stretch:normal;font-size:56.7081px;line-height:100%;font-family:Raleway;-inkscape-font-specification:'Raleway, Bold';text-align:center;writing-mode:lr-tb;text-anchor:middle;fill:#fdffff;fill-opacity:1;fill-rule:nonzero;stroke:none;stroke-width:14.7742;stroke-linecap:round;stroke-linejoin:round;stroke-miterlimit:4;stroke-dasharray:none;stroke-dashoffset:0;stroke-opacity:1"
           transform="matrix(0.18404716,0,0,0.18529782,1214.4917,-1232.9325)">
          <path
             style="fill:#fdffff;fill-opacity:1;stroke-width:14.7742"
             id="path17912"
             d="m -6207.571,7260.896 v -40.2628 h 7.8257 v 33.4011 h 20.5283 v 6.8617 z"
             inkscape:connector-curvature="0" />
          <path
             style="fill:#fdffff;fill-opacity:1;stroke-width:14.7742"
             id="path17914"
             d="m -6162.9993,7220.6332 h 6.9184 l 15.3112,40.2628 h -8.0526 l -3.7427,-10.0373 h -14.0636 l -3.6861,10.0373 h -8.0525 z m 9.0166,24.7248 -5.5574,-15.8216 -5.7842,15.8216 z"
             inkscape:connector-curvature="0" />
          <path
             style="fill:#fdffff;fill-opacity:1;stroke-width:14.7742"
             id="path17916"
             d="m -6116.6767,7235.0938 v 25.8022 h -7.8258 v -40.2628 h 6.0678 l 20.982,26.426 v -26.3693 h 7.8258 v 40.2061 h -6.3514 z"
             inkscape:connector-curvature="0" />
          <path
             style="fill:#fdffff;fill-opacity:1;stroke-width:14.7742"
             id="path17918"
             d="m -6064.1836,7254.2611 q 2.7787,0 4.6501,-1.1341 1.9281,-1.1342 3.0622,-2.9488 1.1909,-1.8147 1.6446,-4.1397 0.5103,-2.3818 0.5103,-4.8769 v -20.5284 h 7.769 v 20.5284 q 0,4.1397 -1.0207,7.769 -0.964,3.6293 -3.1189,6.3513 -2.0983,2.722 -5.444,4.3098 -3.3458,1.5878 -7.9959,1.5878 -4.8202,0 -8.2227,-1.6445 -3.3457,-1.7012 -5.4439,-4.4232 -2.0982,-2.7787 -3.0623,-6.4081 -0.9073,-3.6293 -0.9073,-7.5421 v -20.5284 h 7.8257 v 20.5284 q 0,2.5518 0.4537,4.9336 0.5103,2.325 1.6445,4.1397 1.1909,1.8146 3.0623,2.9488 1.8713,1.0774 4.5933,1.0774 z"
             inkscape:connector-curvature="0" />
          <path
             style="fill:#fdffff;fill-opacity:1;stroke-width:14.7742"
             id="path17920"
             d="m -6038.6649,7260.896 v -40.2628 h 7.8257 v 40.2628 z"
             inkscape:connector-curvature="0" />
          <path
             style="fill:#fdffff;fill-opacity:1;stroke-width:14.7742"
             id="path17922"
             d="m -5992.3822,7227.4949 h -12.8728 v 33.4011 h -7.769 v -33.4011 h -12.8727 v -6.8617 h 33.5145 z"
             inkscape:connector-curvature="0" />
          <path
             style="fill:#fdffff;fill-opacity:1;stroke-width:14.7742"
             id="path17924"
             d="m -5975.3113,7260.896 v -40.2628 h 14.6307 q 4.9336,0 8.6197,1.5878 3.7427,1.5879 6.2379,4.3099 2.4951,2.7219 3.7427,6.408 1.2476,3.6293 1.2476,7.769 0,4.5934 -1.4177,8.3361 -1.361,3.686 -3.9696,6.3513 -2.6086,2.6086 -6.2946,4.083 -3.6293,1.4177 -8.166,1.4177 z m 26.5961,-20.1881 q 0,-2.8921 -0.7939,-5.3306 -0.7939,-2.4384 -2.325,-4.1964 -1.5311,-1.7579 -3.7995,-2.722 -2.2116,-0.964 -5.047,-0.964 h -6.805 v 26.5394 h 6.805 q 2.8921,0 5.1038,-1.0207 2.2683,-1.0208 3.7427,-2.7787 1.5311,-1.8147 2.325,-4.2531 0.7939,-2.4385 0.7939,-5.2739 z"
             inkscape:connector-curvature="0" />
          <path
             style="fill:#fdffff;fill-opacity:1;stroke-width:14.7742"
             id="path17926"
             d="m -5906.8167,7254.0343 v 6.8617 h -27.9571 v -40.2628 h 27.4467 v 6.8617 h -19.621 v 9.6971 h 16.9557 v 6.3513 h -16.9557 v 10.491 z"
             inkscape:connector-curvature="0" />
          <path
             style="fill:#fdffff;fill-opacity:1;stroke-width:14.7742"
             id="path17928"
             d="m -5887.0371,7260.896 v -40.2628 h 7.8257 v 33.4011 h 20.5284 v 6.8617 z"
             inkscape:connector-curvature="0" />
          <path
             style="fill:#fdffff;fill-opacity:1;stroke-width:14.7742"
             id="path17930"
             d="m -5859.3095,7232.5986 v -12.7026 h 6.4648 v 12.7026 z"
             inkscape:connector-curvature="0" />
        </g>
      </g>
      <g
         id="g60239"
         transform="translate(-0.5147271)">
        <g
           aria-label="2025"
           transform="matrix(0.32261315,0,0,0.32269619,384.63866,-157.24256)"
           id="text18032"
           style="line-height:0%;font-family:Slackey;-inkscape-font-specification:'Slackey, Normal';text-align:center;text-anchor:middle;fill:#00eba7;stroke-width:8.86454;stroke-linecap:round;stroke-linejoin:round;stroke-miterlimit:7;filter:url(#filter18108)">
          <path
             d="m -925.32578,938.60085 q -0.1524,4.57202 -0.2286,9.14405 -0.0762,4.57202 -0.3048,9.14404 l -39.85281,1.44781 q -0.381,-5.79123 -0.9144,-11.50626 -0.4572,-5.79123 -0.9144,-11.65866 3.04801,-1.143 6.24843,-2.51461 3.20041,-1.44781 6.24843,-3.20042 3.04801,-1.7526 5.86743,-3.81001 2.81941,-2.05742 5.02922,-4.49583 1.14301,-1.2954 1.98121,-2.51461 0.91441,-1.29541 0.91441,-3.04802 0,-4.11482 -1.67641,-5.41022 -1.60021,-1.37161 -5.18163,-1.37161 -1.524,0 -3.12421,0.0762 -1.52401,0 -2.89562,0.2286 -2.20981,0.381 -2.74321,1.44781 -0.4572,1.0668 -0.4572,3.12421 0,0.60961 0,1.29541 0.0762,0.6858 0.1524,1.37161 l -11.81106,1.60021 q -0.4572,-3.42902 -0.4572,-6.78184 0,-0.8382 0.0762,-2.43841 0.1524,-1.60021 0.4572,-3.27662 0.381,-1.67641 0.9144,-3.12421 0.53341,-1.44781 1.44781,-1.98121 1.37161,-0.83821 4.34342,-1.44781 2.97182,-0.6096 6.32463,-0.91441 3.42902,-0.381 6.55324,-0.5334 3.12421,-0.1524 4.80062,-0.1524 2.89562,0 5.41023,0.1524 2.59081,0.1524 4.64822,0.99061 2.13361,0.762 3.65762,2.59081 1.52401,1.75261 2.28601,4.95303 0.38101,1.7526 0.45721,3.58141 0.0762,1.82881 0.0762,3.58142 0,0.68581 -0.0762,1.82881 0,1.14301 -0.0762,2.36221 -0.0762,1.21921 -0.30481,2.28601 -0.2286,1.06681 -0.5334,1.75261 -0.4572,0.83821 -1.82881,2.20981 -1.2954,1.29541 -2.89561,2.66702 -1.60021,1.29541 -3.12422,2.51461 -1.52401,1.14301 -2.36221,1.75261 -1.29541,0.9144 -2.74321,1.75261 -1.37161,0.762 -2.66702,1.60021 -2.51461,1.4478 -5.10542,2.89561 -2.51462,1.37161 -5.10543,2.74322 14.70667,-0.22861 29.48955,-0.91441 z"
             style="font-size:78.0292px;line-height:1.25"
             id="path31154" />
          <path
             d="m -870.5377,920.84616 q 0,1.37161 0,3.73382 0,2.28601 -0.0762,5.18163 -0.0762,2.81941 -0.2286,5.86743 -0.1524,2.97181 -0.4572,5.71503 -0.30481,2.66701 -0.83821,4.72442 -0.4572,2.05741 -1.143,2.97181 -0.91441,1.06681 -2.13362,2.36222 -1.143,1.2192 -2.51461,2.43841 -1.37161,1.143 -2.81941,2.05741 -1.37161,0.9144 -2.74322,1.29541 -1.2192,0.381 -3.42901,0.6096 -2.13362,0.2286 -4.49583,0.3048 -2.28601,0.1524 -4.49582,0.1524 -2.20981,0.0762 -3.58142,0.0762 -0.6858,0 -1.98121,0 -1.2192,0 -2.59081,-0.1524 -1.37161,-0.0762 -2.59082,-0.2286 -1.2192,-0.1524 -1.7526,-0.5334 -1.67641,-1.06681 -3.12422,-2.51462 -1.37161,-1.524 -2.43841,-3.27661 -0.99061,-1.60021 -1.52401,-3.65762 -0.5334,-2.05741 -0.9144,-3.96242 -0.38101,-2.13361 -0.76201,-4.64822 -0.3048,-2.59082 -0.6096,-5.25783 -0.2286,-2.66702 -0.381,-5.25783 -0.1524,-2.59081 -0.1524,-4.87682 0,-1.29541 0.1524,-4.03862 0.1524,-2.81942 0.4572,-5.79123 0.381,-2.97182 0.9144,-5.56263 0.53341,-2.66702 1.37161,-3.65762 0.8382,-1.06681 2.59081,-1.90501 1.75261,-0.9144 3.96242,-1.60021 2.20981,-0.6858 4.64823,-1.143 2.51461,-0.53341 4.87682,-0.83821 2.36221,-0.381 4.34342,-0.5334 1.98121,-0.1524 3.20042,-0.1524 1.29541,0 2.89562,0.0762 1.6002,0 3.20041,0.1524 1.67641,0.1524 3.20042,0.4572 1.52401,0.3048 2.74321,0.83821 0.99061,0.4572 2.36221,1.4478 1.37161,0.91441 2.59082,2.05741 1.2954,1.14301 2.28601,2.36222 1.0668,1.2192 1.44781,2.13361 0.2286,0.4572 0.3048,2.28601 0.0762,1.75261 0.1524,3.81002 0.0762,2.05741 0.0762,3.96242 0,1.82881 0,2.51461 z m -14.93528,8.99165 q 0,-0.83821 -0.0762,-2.59082 -0.0762,-1.82881 -0.2286,-4.03862 -0.0762,-2.28601 -0.2286,-4.64822 -0.1524,-2.43841 -0.4572,-4.57202 -0.2286,-2.13361 -0.5334,-3.65762 -0.30481,-1.60021 -0.68581,-2.13361 -0.6096,-0.83821 -1.82881,-0.99061 -1.2192,-0.2286 -2.20981,-0.2286 -0.8382,0 -2.43841,0.1524 -1.52401,0.1524 -3.20042,0.5334 -1.67641,0.30481 -3.12421,0.76201 -1.44781,0.4572 -2.05741,1.0668 -0.91441,0.91441 -1.44781,3.65762 -0.4572,2.66702 -0.6858,5.86743 -0.22861,3.20042 -0.30481,6.17223 0,2.97182 0,4.41963 0,0.8382 0.0762,2.59081 0.0762,1.67641 0.1524,3.88622 0.15241,2.13361 0.30481,4.49582 0.2286,2.28601 0.4572,4.34342 0.2286,1.98121 0.4572,3.42902 0.3048,1.37161 0.6858,1.75261 0.30481,0.3048 0.83821,0.4572 0.6096,0.1524 1.29541,0.2286 0.6858,0.0762 1.2954,0.0762 0.6096,0 0.99061,0 0.8382,0 2.05741,-0.0762 1.2954,-0.0762 2.59081,-0.2286 1.37161,-0.1524 2.51461,-0.381 1.21921,-0.2286 1.98121,-0.6096 0.76201,-0.381 1.37161,-1.75261 0.6096,-1.37161 0.99061,-3.27662 0.4572,-1.90501 0.6858,-4.03862 0.3048,-2.20981 0.4572,-4.26722 0.1524,-2.05741 0.2286,-3.73382 0.0762,-1.75261 0.0762,-2.66701 z"
             style="font-size:78.0292px;line-height:1.25"
             id="path31156" />
          <path
             d="m -818.95004,938.60085 q -0.1524,4.57202 -0.2286,9.14405 -0.0762,4.57202 -0.3048,9.14404 l -39.85281,1.44781 q -0.381,-5.79123 -0.9144,-11.50626 -0.4572,-5.79123 -0.9144,-11.65866 3.04801,-1.143 6.24843,-2.51461 3.20041,-1.44781 6.24843,-3.20042 3.04801,-1.7526 5.86743,-3.81001 2.81941,-2.05742 5.02922,-4.49583 1.14301,-1.2954 1.98121,-2.51461 0.91441,-1.29541 0.91441,-3.04802 0,-4.11482 -1.67641,-5.41022 -1.60021,-1.37161 -5.18163,-1.37161 -1.524,0 -3.12421,0.0762 -1.52401,0 -2.89562,0.2286 -2.20981,0.381 -2.74321,1.44781 -0.4572,1.0668 -0.4572,3.12421 0,0.60961 0,1.29541 0.0762,0.6858 0.1524,1.37161 l -11.81106,1.60021 q -0.4572,-3.42902 -0.4572,-6.78184 0,-0.8382 0.0762,-2.43841 0.1524,-1.60021 0.4572,-3.27662 0.381,-1.67641 0.9144,-3.12421 0.53341,-1.44781 1.44781,-1.98121 1.37161,-0.83821 4.34342,-1.44781 2.97182,-0.6096 6.32463,-0.91441 3.42902,-0.381 6.55324,-0.5334 3.12421,-0.1524 4.80062,-0.1524 2.89562,0 5.41023,0.1524 2.59081,0.1524 4.64822,0.99061 2.13361,0.762 3.65762,2.59081 1.52401,1.75261 2.28601,4.95303 0.38101,1.7526 0.45721,3.58141 0.0762,1.82881 0.0762,3.58142 0,0.68581 -0.0762,1.82881 0,1.14301 -0.0762,2.36221 -0.0762,1.21921 -0.30481,2.28601 -0.2286,1.06681 -0.5334,1.75261 -0.4572,0.83821 -1.82881,2.20981 -1.2954,1.29541 -2.89561,2.66702 -1.60021,1.29541 -3.12422,2.51461 -1.52401,1.14301 -2.36221,1.75261 -1.29541,0.9144 -2.74321,1.75261 -1.37161,0.762 -2.66702,1.60021 -2.51461,1.4478 -5.10542,2.89561 -2.51462,1.37161 -5.10543,2.74322 14.70667,-0.22861 29.48955,-0.91441 z"
             style="font-size:78.0292px;line-height:1.25"
             id="path31158" />
          <path
             d="m -764.46676,910.25431 q -7.62004,0.6858 -15.24008,1.3716 -7.54384,0.68581 -15.24008,1.75261 l 0.3048,9.44885 q 1.67641,0 4.64823,0.2286 3.04801,0.1524 6.24843,0.5334 3.27662,0.38101 6.17223,1.06681 2.89562,0.6096 4.49582,1.52401 2.66702,1.60021 4.03862,3.50522 1.44781,1.90501 1.98121,4.11482 0.60961,2.20981 0.60961,4.72442 0.0762,2.51461 0.0762,5.33403 0,0.4572 0,1.2954 0,0.76201 -0.0762,1.60021 -0.0762,0.83821 -0.1524,1.60021 -0.0762,0.762 -0.3048,1.21921 -0.60961,1.2954 -2.13362,2.81941 -1.524,1.44781 -3.35281,2.74322 -1.82881,1.2954 -3.73382,2.28601 -1.82881,0.9906 -3.27662,1.2954 -1.60021,0.38101 -3.35282,0.45721 -1.6764,0.0762 -3.35281,0.2286 -2.89562,0.1524 -5.79123,0.2286 -2.81942,0.1524 -5.71503,0.1524 -0.5334,0 -1.37161,0 -0.8382,0 -1.75261,-0.0762 -0.9144,0 -1.75261,-0.0762 -0.762,-0.0762 -1.2192,-0.2286 -2.43841,-0.83821 -3.96242,-2.66702 -1.52401,-1.90501 -2.36221,-4.34342 -0.22861,-0.6858 -0.45721,-2.28601 -0.1524,-1.60021 -0.3048,-3.42902 -0.1524,-1.82881 -0.3048,-3.50522 -0.0762,-1.6764 -0.0762,-2.36221 l 17.60229,-0.4572 q -0.381,2.13361 -0.381,3.96242 0,1.29541 0.5334,1.98121 0.5334,0.6096 1.37161,0.91441 0.9144,0.2286 1.98121,0.2286 1.0668,0 2.13361,0 1.75261,0 2.97181,-0.2286 1.21921,-0.30481 1.98121,-0.99061 0.83821,-0.6858 1.21921,-1.90501 0.381,-1.21921 0.381,-3.12422 0,-1.524 -0.5334,-3.04801 -0.5334,-1.60021 -2.05741,-2.20981 -1.60021,-0.76201 -3.88622,-1.14301 -2.28601,-0.4572 -4.80063,-0.6858 -2.43841,-0.2286 -4.87682,-0.2286 -2.36221,-0.0762 -4.03862,-0.0762 -1.82881,0 -3.73382,0.0762 -1.82881,0 -3.73382,0.0762 l -1.29541,-33.37577 h 5.33403 q 9.98225,0 19.7359,-0.2286 9.75365,-0.30481 19.6597,-0.60961 z"
             style="font-size:78.0292px;line-height:1.25"
             id="path31160" />
        </g>
        <g
           aria-label="2025"
           transform="scale(0.99987133,1.0001287)"
           id="text17942"
           style="font-size:3.87186px;line-height:0%;font-family:Slackey;-inkscape-font-specification:'Slackey, Normal';text-align:center;text-anchor:middle;fill:#fdffff;stroke-width:2.86018;stroke-linecap:round;stroke-linejoin:round;stroke-miterlimit:7">
          <path
             d="m 86.127559,145.62164 q -0.04917,1.47518 -0.07376,2.95036 -0.02459,1.47518 -0.09834,2.95036 l -12.858649,0.46714 q -0.122932,-1.86856 -0.295036,-3.71254 -0.147518,-1.86856 -0.295036,-3.7617 0.983453,-0.3688 2.016079,-0.81135 1.032626,-0.46714 2.016079,-1.03263 0.983453,-0.56548 1.893147,-1.22932 0.909694,-0.66383 1.622698,-1.45059 0.368794,-0.41797 0.639244,-0.81135 0.295036,-0.41797 0.295036,-0.98345 0,-1.32766 -0.540899,-1.74563 -0.516313,-0.44255 -1.671871,-0.44255 -0.491726,0 -1.008039,0.0246 -0.491726,0 -0.93428,0.0738 -0.713004,0.12293 -0.885108,0.46714 -0.147518,0.34421 -0.147518,1.00804 0,0.19669 0,0.41797 0.02459,0.22128 0.04917,0.44255 l -3.810881,0.51632 q -0.147518,-1.10639 -0.147518,-2.18819 0,-0.27045 0.02459,-0.78676 0.04917,-0.51631 0.147518,-1.05721 0.122932,-0.5409 0.295036,-1.00804 0.172104,-0.46714 0.46714,-0.63925 0.442554,-0.27045 1.401421,-0.46714 0.958867,-0.19669 2.040665,-0.29503 1.106385,-0.12293 2.114424,-0.17211 1.00804,-0.0492 1.548939,-0.0492 0.93428,0 1.745629,0.0492 0.835935,0.0492 1.499766,0.31963 0.688417,0.24586 1.180144,0.83593 0.491726,0.56549 0.73759,1.59811 0.122931,0.56549 0.147518,1.15556 0.02459,0.59007 0.02459,1.15556 0,0.22127 -0.02459,0.59007 0,0.36879 -0.02459,0.76217 -0.02459,0.39339 -0.09835,0.73759 -0.07376,0.34421 -0.172104,0.56549 -0.147518,0.27045 -0.590072,0.713 -0.417968,0.41797 -0.934281,0.86052 -0.516313,0.41797 -1.008039,0.81135 -0.491727,0.3688 -0.762176,0.56549 -0.417968,0.29504 -0.885108,0.56548 -0.442554,0.24587 -0.860521,0.51632 -0.811349,0.46714 -1.647284,0.93428 -0.811349,0.44255 -1.647284,0.88511 4.745161,-0.0738 9.514908,-0.29504 z"
             style="font-size:25.1764px;line-height:1.25"
             id="path30989" />
          <path
             d="m 103.80513,139.89303 q 0,0.44255 0,1.20473 0,0.73759 -0.0246,1.67187 -0.0246,0.90969 -0.0738,1.89314 -0.0492,0.95887 -0.14751,1.84398 -0.0983,0.86052 -0.27045,1.52435 -0.14752,0.66383 -0.3688,0.95887 -0.29503,0.34421 -0.68842,0.76217 -0.36879,0.39338 -0.81134,0.78677 -0.44256,0.36879 -0.9097,0.66383 -0.44255,0.29503 -0.885106,0.41796 -0.393382,0.12294 -1.106385,0.19669 -0.688417,0.0738 -1.450593,0.0984 -0.73759,0.0492 -1.450594,0.0492 -0.713003,0.0246 -1.155557,0.0246 -0.221277,0 -0.639245,0 -0.393381,0 -0.835935,-0.0492 -0.442554,-0.0246 -0.835935,-0.0738 -0.393381,-0.0492 -0.565485,-0.17211 -0.5409,-0.34421 -1.00804,-0.81135 -0.442554,-0.49172 -0.786762,-1.05721 -0.319623,-0.51631 -0.491727,-1.18014 -0.172104,-0.66383 -0.295036,-1.27849 -0.122931,-0.68842 -0.245863,-1.49977 -0.09834,-0.83593 -0.196691,-1.69645 -0.07376,-0.86052 -0.122931,-1.69646 -0.04917,-0.83594 -0.04917,-1.57352 0,-0.41797 0.04917,-1.30308 0.04917,-0.90969 0.147518,-1.86856 0.122931,-0.95887 0.295036,-1.7948 0.172104,-0.86052 0.442553,-1.18015 0.27045,-0.34421 0.835936,-0.61465 0.565485,-0.29504 1.278489,-0.51632 0.713003,-0.22127 1.499766,-0.36879 0.811348,-0.17211 1.573525,-0.27045 0.762176,-0.12293 1.40142,-0.17211 0.639245,-0.0492 1.032626,-0.0492 0.417968,0 0.93428,0.0246 0.516313,0 1.032626,0.0492 0.540899,0.0492 1.032626,0.14752 0.491724,0.0983 0.885104,0.27045 0.31963,0.14752 0.76218,0.46714 0.44255,0.29503 0.83593,0.66383 0.41797,0.36879 0.73759,0.76217 0.34421,0.39339 0.46714,0.68842 0.0738,0.14752 0.0983,0.73759 0.0246,0.56549 0.0492,1.22932 0.0246,0.66383 0.0246,1.27849 0,0.59007 0,0.81135 z m -4.818921,2.90118 q 0,-0.27045 -0.02459,-0.83593 -0.02459,-0.59007 -0.07376,-1.30308 -0.02459,-0.73759 -0.07376,-1.49976 -0.04917,-0.78677 -0.147518,-1.47518 -0.07376,-0.68842 -0.172104,-1.18015 -0.09835,-0.51631 -0.221277,-0.68841 -0.196691,-0.27045 -0.590072,-0.31963 -0.393381,-0.0738 -0.713004,-0.0738 -0.270449,0 -0.786762,0.0492 -0.491727,0.0492 -1.032626,0.1721 -0.540899,0.0984 -1.008039,0.24586 -0.467141,0.14752 -0.663831,0.34421 -0.295036,0.29504 -0.46714,1.18015 -0.147518,0.86052 -0.221277,1.89314 -0.07376,1.03263 -0.09835,1.9915 0,0.95886 0,1.426 0,0.27045 0.02459,0.83594 0.02459,0.5409 0.04917,1.2539 0.04917,0.68842 0.09835,1.45059 0.07376,0.73759 0.147518,1.40143 0.07376,0.63924 0.147518,1.10638 0.09834,0.44255 0.221276,0.56549 0.09835,0.0983 0.27045,0.14751 0.196691,0.0492 0.417968,0.0738 0.221277,0.0246 0.417967,0.0246 0.196691,0 0.319622,0 0.27045,0 0.663831,-0.0246 0.417968,-0.0246 0.835935,-0.0738 0.442554,-0.0492 0.811349,-0.12293 0.393381,-0.0738 0.639245,-0.19669 0.245863,-0.12293 0.442554,-0.56548 0.19669,-0.44256 0.319622,-1.05722 0.147518,-0.61465 0.221277,-1.30307 0.09834,-0.71301 0.147518,-1.37684 0.04917,-0.66383 0.07376,-1.20473 0.02459,-0.56548 0.02459,-0.86052 z"
             style="font-size:25.1764px;line-height:1.25"
             id="path30991" />
          <path
             d="m 120.45007,145.62164 q -0.0492,1.47518 -0.0738,2.95036 -0.0246,1.47518 -0.0983,2.95036 l -12.85865,0.46714 q -0.12293,-1.86856 -0.29504,-3.71254 -0.14751,-1.86856 -0.29503,-3.7617 0.98345,-0.3688 2.01608,-0.81135 1.03262,-0.46714 2.01608,-1.03263 0.98345,-0.56548 1.89314,-1.22932 0.9097,-0.66383 1.6227,-1.45059 0.3688,-0.41797 0.63924,-0.81135 0.29504,-0.41797 0.29504,-0.98345 0,-1.32766 -0.5409,-1.74563 -0.51631,-0.44255 -1.67187,-0.44255 -0.49173,0 -1.00804,0.0246 -0.49172,0 -0.93428,0.0738 -0.713,0.12293 -0.88511,0.46714 -0.14751,0.34421 -0.14751,1.00804 0,0.19669 0,0.41797 0.0246,0.22128 0.0492,0.44255 l -3.81088,0.51632 q -0.14752,-1.10639 -0.14752,-2.18819 0,-0.27045 0.0246,-0.78676 0.0492,-0.51631 0.14751,-1.05721 0.12294,-0.5409 0.29504,-1.00804 0.1721,-0.46714 0.46714,-0.63925 0.44255,-0.27045 1.40142,-0.46714 0.95887,-0.19669 2.04067,-0.29503 1.10638,-0.12293 2.11442,-0.17211 1.00804,-0.0492 1.54894,-0.0492 0.93428,0 1.74563,0.0492 0.83593,0.0492 1.49976,0.31963 0.68842,0.24586 1.18015,0.83593 0.49172,0.56549 0.73759,1.59811 0.12293,0.56549 0.14752,1.15556 0.0246,0.59007 0.0246,1.15556 0,0.22127 -0.0246,0.59007 0,0.36879 -0.0246,0.76217 -0.0246,0.39339 -0.0983,0.73759 -0.0738,0.34421 -0.1721,0.56549 -0.14752,0.27045 -0.59007,0.713 -0.41797,0.41797 -0.93428,0.86052 -0.51632,0.41797 -1.00804,0.81135 -0.49173,0.3688 -0.76218,0.56549 -0.41797,0.29504 -0.88511,0.56548 -0.44255,0.24587 -0.86052,0.51632 -0.81135,0.46714 -1.64728,0.93428 -0.81135,0.44255 -1.64729,0.88511 4.74517,-0.0738 9.51491,-0.29504 z"
             style="font-size:25.1764px;line-height:1.25"
             id="path30993" />
          <path
             d="m 138.0293,136.47553 q -2.45864,0.22127 -4.91727,0.44255 -2.43405,0.22128 -4.91727,0.56549 l 0.0984,3.0487 q 0.5409,0 1.49977,0.0738 0.98345,0.0492 2.01607,0.1721 1.05722,0.12294 1.9915,0.34421 0.93428,0.19669 1.45059,0.49173 0.86052,0.51631 1.30308,1.13097 0.46714,0.61466 0.63924,1.32766 0.19669,0.713 0.19669,1.52435 0.0246,0.81135 0.0246,1.72105 0,0.14751 0,0.41796 0,0.24587 -0.0246,0.51632 -0.0246,0.27045 -0.0492,0.51631 -0.0246,0.24586 -0.0984,0.39338 -0.19669,0.41797 -0.68841,0.9097 -0.49173,0.46714 -1.0818,0.8851 -0.59007,0.41797 -1.20473,0.73759 -0.59007,0.31963 -1.05721,0.41797 -0.51632,0.12293 -1.0818,0.14752 -0.5409,0.0246 -1.0818,0.0738 -0.93428,0.0492 -1.86856,0.0738 -0.9097,0.0492 -1.84398,0.0492 -0.1721,0 -0.44255,0 -0.27045,0 -0.56549,-0.0246 -0.29503,0 -0.56548,-0.0246 -0.24586,-0.0246 -0.39338,-0.0738 -0.78677,-0.27045 -1.27849,-0.86052 -0.49173,-0.61466 -0.76218,-1.40142 -0.0738,-0.22128 -0.14752,-0.73759 -0.0492,-0.51632 -0.0983,-1.10639 -0.0492,-0.59007 -0.0983,-1.13097 -0.0246,-0.5409 -0.0246,-0.76218 l 5.67944,-0.14751 q -0.12293,0.68841 -0.12293,1.27848 0,0.41797 0.1721,0.63925 0.17211,0.19669 0.44256,0.29503 0.29503,0.0738 0.63924,0.0738 0.34421,0 0.68842,0 0.56548,0 0.95886,-0.0738 0.39338,-0.0983 0.63925,-0.31962 0.27045,-0.22127 0.39338,-0.61466 0.12293,-0.39338 0.12293,-1.00803 0,-0.49173 -0.1721,-0.98346 -0.17211,-0.51631 -0.66383,-0.713 -0.51632,-0.24586 -1.25391,-0.3688 -0.73759,-0.14751 -1.54894,-0.22127 -0.78676,-0.0738 -1.57352,-0.0738 -0.76218,-0.0246 -1.30308,-0.0246 -0.59007,0 -1.20473,0.0246 -0.59007,0 -1.20473,0.0246 l -0.41796,-10.76881 h 1.72104 q 3.22081,0 6.36786,-0.0738 3.14705,-0.0983 6.34327,-0.19669 z"
             style="font-size:25.1764px;line-height:1.25"
             id="path30995" />
        </g>
      </g>
      <g
         id="g60233"
         transform="matrix(1.080708,0,0,1.080708,-8.4574035,-10.204411)">
        <g
           transform="matrix(0.17102634,0,0,0.17218853,1136.3595,-1137.9679)"
           style="font-style:normal;font-variant:normal;font-weight:normal;font-stretch:normal;font-size:120.631px;line-height:100%;font-family:Slackey;-inkscape-font-specification:'Slackey, Normal';text-align:center;writing-mode:lr-tb;text-anchor:middle;fill:#00eba7;fill-opacity:1;fill-rule:nonzero;stroke:none;stroke-width:14.7742;stroke-linecap:round;stroke-linejoin:round;stroke-miterlimit:4;stroke-dasharray:none;stroke-dashoffset:0;stroke-opacity:1;filter:url(#filter18108)"
           id="g18058">
          <path
             inkscape:connector-curvature="0"
             d="m -6156.6293,7276.0895 q -0.589,7.186 -0.4712,14.372 0.1178,7.0682 -0.1178,14.1364 l -13.0761,-0.4712 q -0.1178,4.1231 -0.2356,8.1284 0,4.0053 0,8.1285 0,4.9477 0,9.7776 0.1178,4.7122 0.2356,9.6599 l 12.0159,0.2356 q -0.2356,3.4163 -0.2356,6.9504 0,3.5341 0,7.0682 0,2.9451 0.1178,5.8902 0.2356,2.945 0.8246,5.7723 l -42.2914,0.7068 q 0,-5.7723 -0.1178,-11.3091 -0.1178,-5.6545 -0.4712,-11.4269 l 7.6572,-0.1178 q -0.589,-11.0735 -1.4136,-21.9114 -0.7068,-10.8379 -1.5314,-21.7936 l -11.1914,-1.4136 q -0.2356,-4.9478 -0.4712,-9.7777 -0.1178,-4.9478 -0.3534,-9.8955 12.8406,-0.4712 25.4455,-1.0602 12.7228,-0.7068 25.6811,-1.6493 z"
             id="path18060"
             style="fill:#00eba7;fill-opacity:1;stroke-width:14.7742" />
          <path
             inkscape:connector-curvature="0"
             d="m -6049.0749,7324.6245 q 0,10.3667 -0.1178,20.4977 0,10.0133 -0.1178,20.38 -7.3038,-0.3534 -14.4898,-0.3534 -3.5341,0 -7.186,0.3534 -3.5341,0.3534 -7.0682,0.9424 -4.4765,-9.7776 -8.953,-19.3197 -4.4766,-9.6599 -8.9531,-19.4375 -3.2985,-7.186 -6.2435,-14.372 -2.9451,-7.186 -5.8902,-14.4898 -1.0602,15.9034 -2.2383,31.689 -1.0602,15.6679 -1.767,31.5713 l -25.4455,-0.7068 q -0.589,-22.6182 -1.0603,-45.0009 -0.4712,-22.3826 -1.6492,-45.0008 l 46.0611,-0.2356 q 2.356,5.8902 4.3587,11.8981 2.1205,5.8902 4.0053,12.016 2.7095,9.3064 6.1258,18.4951 3.4163,9.0708 6.8326,18.2595 -0.1178,-14.7254 -0.5891,-29.333 -0.3534,-14.6076 -0.589,-29.4509 l 23.7963,2.8273 q 0.4712,12.2516 0.8246,24.3853 0.3534,12.1337 0.3534,24.3853 z"
             id="path18062"
             style="fill:#00eba7;fill-opacity:1;stroke-width:14.7742" />
          <path
             inkscape:connector-curvature="0"
             d="m -5964.1387,7300.4748 q -10.2489,0.589 -20.2622,0.9424 -9.8955,0.3534 -20.0265,1.2959 l 0.9424,10.131 19.5553,1.2959 3.2985,11.7803 q -5.3011,1.178 -10.7201,1.8849 -5.3011,0.589 -10.6023,1.6492 1.1781,8.8353 1.6493,17.6705 0.4712,8.7174 0.4712,17.5527 l -30.9823,1.0602 q 0.5891,-13.783 0.7069,-27.3303 0.1178,-13.6652 0.1178,-27.4482 v -10.4845 -23.6785 q 6.8325,-0.1178 13.4295,-0.2356 6.7148,-0.2356 13.5474,-0.2356 9.1887,0 18.3773,0.4712 9.1887,0.3535 18.4951,0.8247 0.7068,5.6545 1.2959,11.4269 0.7068,5.6545 0.7068,11.4269 z"
             id="path18064"
             style="fill:#00eba7;fill-opacity:1;stroke-width:14.7742" />
          <path
             inkscape:connector-curvature="0"
             d="m -5855.5241,7312.2551 q 0,1.5315 0,3.0629 0,1.4137 -0.1178,2.8273 -0.1178,1.178 -0.3534,4.1231 -0.1178,2.9451 -0.4712,6.8326 -0.2356,3.7697 -0.7068,8.0106 -0.3535,4.2409 -0.9425,7.8928 -0.4712,3.5341 -1.0602,6.1258 -0.589,2.5917 -1.178,3.1807 -3.5341,3.5341 -8.4819,5.3011 -4.8299,1.6493 -10.1311,2.2383 -5.3011,0.589 -10.6022,0.4712 -5.3012,-0.1178 -9.8955,-0.1178 -1.5315,0 -5.1834,0 -3.6519,-0.1178 -8.364,-0.2356 -4.5943,-0.1178 -9.6599,-0.3534 -5.0655,-0.3534 -9.542,-0.8246 -4.3588,-0.589 -7.6572,-1.2959 -3.1807,-0.8246 -4.0054,-2.0026 -0.9424,-1.2958 -1.6492,-2.8273 -0.7068,-1.5314 -1.2958,-2.9451 -1.5315,-3.8875 -2.8273,-8.2462 -1.2959,-4.4765 -2.2383,-9.0709 -0.8246,-4.7121 -1.4136,-9.3064 -0.4712,-4.5943 -0.4712,-8.7175 0,-2.2382 0.3534,-5.7723 0.3534,-3.6519 0.9424,-7.775 0.589,-4.2409 1.4136,-8.5997 0.8247,-4.3587 1.7671,-8.1284 1.0602,-3.7697 2.2383,-6.4792 1.178,-2.8273 2.5916,-3.7697 1.1781,-0.8246 4.3588,-1.5314 3.1806,-0.7068 7.4216,-1.1781 4.2409,-0.589 9.0708,-0.9424 4.8299,-0.4712 9.1887,-0.7068 4.3587,-0.3534 7.8928,-0.4712 3.5341,-0.1178 5.1833,-0.1178 2.2383,0 6.008,0.2356 3.8875,0.2356 8.364,0.8246 4.4765,0.4712 9.0709,1.2959 4.5943,0.7068 8.4818,1.767 4.0053,1.0602 6.8326,2.3561 2.8273,1.2958 3.5341,2.8272 0.589,1.2959 1.0602,3.7697 0.589,2.3561 0.9425,5.419 0.3534,3.0629 0.589,6.4792 0.3534,3.4163 0.4712,6.597 0.2356,3.0628 0.3534,5.6545 0.1178,2.5917 0.1178,4.1231 z m -21.0868,3.8875 q 0,-2.356 -0.2356,-4.9477 -0.2356,-2.7095 -1.5314,-4.7121 -0.9425,-1.4137 -4.5944,-2.2383 -3.5341,-0.8246 -7.8928,-1.178 -4.2409,-0.3534 -8.2462,-0.3534 -4.0053,-0.1178 -5.6546,-0.1178 -1.2958,0 -4.5943,0.2356 -3.1807,0.2356 -6.8326,0.8246 -3.5341,0.4712 -6.597,1.2958 -3.0629,0.7069 -3.7697,1.7671 -0.7068,0.8246 -1.178,3.1807 -0.3534,2.2382 -0.7068,4.9477 -0.2356,2.5917 -0.3534,5.0655 -0.1178,2.3561 -0.1178,3.4163 0,0.9425 0,2.8273 0.1178,1.8849 0.3534,3.8875 0.2356,2.0027 0.4712,3.7697 0.3534,1.7671 0.9424,2.5917 0.3534,0.589 2.1205,1.0602 1.767,0.4712 4.2409,0.9425 2.5917,0.3534 5.4189,0.589 2.8273,0.2356 5.419,0.4712 2.7095,0.1178 4.7121,0.2356 2.1205,0 2.9451,0 1.4136,0 4.8299,-0.2356 3.5341,-0.2356 7.3038,-0.7068 3.8875,-0.589 7.0682,-1.2959 3.2985,-0.8246 4.241,-1.8848 0.7068,-0.8246 1.178,-3.4163 0.4712,-2.7095 0.7068,-5.7724 0.2356,-3.1807 0.2356,-6.0079 0.1178,-2.9451 0.1178,-4.241 z"
             id="path18066"
             style="fill:#00eba7;fill-opacity:1;stroke-width:14.7742" />
        </g>
        <g
           id="g17932"
           style="font-style:normal;font-variant:normal;font-weight:normal;font-stretch:normal;font-size:120.631px;line-height:100%;font-family:Slackey;-inkscape-font-specification:'Slackey, Normal';text-align:center;writing-mode:lr-tb;text-anchor:middle;fill:#fdffff;fill-opacity:1;fill-rule:nonzero;stroke:none;stroke-width:14.7742;stroke-linecap:round;stroke-linejoin:round;stroke-miterlimit:4;stroke-dasharray:none;stroke-dashoffset:0;stroke-opacity:1"
           transform="matrix(0.17102634,0,0,0.17218853,1136.3595,-1137.9679)">
          <path
             style="fill:#fdffff;fill-opacity:1;stroke-width:14.7742"
             id="path17934"
             d="m -6156.6293,7276.0895 q -0.589,7.186 -0.4712,14.372 0.1178,7.0682 -0.1178,14.1364 l -13.0761,-0.4712 q -0.1178,4.1231 -0.2356,8.1284 0,4.0053 0,8.1285 0,4.9477 0,9.7776 0.1178,4.7122 0.2356,9.6599 l 12.0159,0.2356 q -0.2356,3.4163 -0.2356,6.9504 0,3.5341 0,7.0682 0,2.9451 0.1178,5.8902 0.2356,2.945 0.8246,5.7723 l -42.2914,0.7068 q 0,-5.7723 -0.1178,-11.3091 -0.1178,-5.6545 -0.4712,-11.4269 l 7.6572,-0.1178 q -0.589,-11.0735 -1.4136,-21.9114 -0.7068,-10.8379 -1.5314,-21.7936 l -11.1914,-1.4136 q -0.2356,-4.9478 -0.4712,-9.7777 -0.1178,-4.9478 -0.3534,-9.8955 12.8406,-0.4712 25.4455,-1.0602 12.7228,-0.7068 25.6811,-1.6493 z"
             inkscape:connector-curvature="0" />
          <path
             style="fill:#fdffff;fill-opacity:1;stroke-width:14.7742"
             id="path17936"
             d="m -6049.0749,7324.6245 q 0,10.3667 -0.1178,20.4977 0,10.0133 -0.1178,20.38 -7.3038,-0.3534 -14.4898,-0.3534 -3.5341,0 -7.186,0.3534 -3.5341,0.3534 -7.0682,0.9424 -4.4765,-9.7776 -8.953,-19.3197 -4.4766,-9.6599 -8.9531,-19.4375 -3.2985,-7.186 -6.2435,-14.372 -2.9451,-7.186 -5.8902,-14.4898 -1.0602,15.9034 -2.2383,31.689 -1.0602,15.6679 -1.767,31.5713 l -25.4455,-0.7068 q -0.589,-22.6182 -1.0603,-45.0009 -0.4712,-22.3826 -1.6492,-45.0008 l 46.0611,-0.2356 q 2.356,5.8902 4.3587,11.8981 2.1205,5.8902 4.0053,12.016 2.7095,9.3064 6.1258,18.4951 3.4163,9.0708 6.8326,18.2595 -0.1178,-14.7254 -0.5891,-29.333 -0.3534,-14.6076 -0.589,-29.4509 l 23.7963,2.8273 q 0.4712,12.2516 0.8246,24.3853 0.3534,12.1337 0.3534,24.3853 z"
             inkscape:connector-curvature="0" />
          <path
             style="fill:#fdffff;fill-opacity:1;stroke-width:14.7742"
             id="path17938"
             d="m -5964.1387,7300.4748 q -10.2489,0.589 -20.2622,0.9424 -9.8955,0.3534 -20.0265,1.2959 l 0.9424,10.131 19.5553,1.2959 3.2985,11.7803 q -5.3011,1.178 -10.7201,1.8849 -5.3011,0.589 -10.6023,1.6492 1.1781,8.8353 1.6493,17.6705 0.4712,8.7174 0.4712,17.5527 l -30.9823,1.0602 q 0.5891,-13.783 0.7069,-27.3303 0.1178,-13.6652 0.1178,-27.4482 v -10.4845 -23.6785 q 6.8325,-0.1178 13.4295,-0.2356 6.7148,-0.2356 13.5474,-0.2356 9.1887,0 18.3773,0.4712 9.1887,0.3535 18.4951,0.8247 0.7068,5.6545 1.2959,11.4269 0.7068,5.6545 0.7068,11.4269 z"
             inkscape:connector-curvature="0" />
          <path
             style="fill:#fdffff;fill-opacity:1;stroke-width:14.7742"
             id="path17940"
             d="m -5855.5241,7312.2551 q 0,1.5315 0,3.0629 0,1.4137 -0.1178,2.8273 -0.1178,1.178 -0.3534,4.1231 -0.1178,2.9451 -0.4712,6.8326 -0.2356,3.7697 -0.7068,8.0106 -0.3535,4.2409 -0.9425,7.8928 -0.4712,3.5341 -1.0602,6.1258 -0.589,2.5917 -1.178,3.1807 -3.5341,3.5341 -8.4819,5.3011 -4.8299,1.6493 -10.1311,2.2383 -5.3011,0.589 -10.6022,0.4712 -5.3012,-0.1178 -9.8955,-0.1178 -1.5315,0 -5.1834,0 -3.6519,-0.1178 -8.364,-0.2356 -4.5943,-0.1178 -9.6599,-0.3534 -5.0655,-0.3534 -9.542,-0.8246 -4.3588,-0.589 -7.6572,-1.2959 -3.1807,-0.8246 -4.0054,-2.0026 -0.9424,-1.2958 -1.6492,-2.8273 -0.7068,-1.5314 -1.2958,-2.9451 -1.5315,-3.8875 -2.8273,-8.2462 -1.2959,-4.4765 -2.2383,-9.0709 -0.8246,-4.7121 -1.4136,-9.3064 -0.4712,-4.5943 -0.4712,-8.7175 0,-2.2382 0.3534,-5.7723 0.3534,-3.6519 0.9424,-7.775 0.589,-4.2409 1.4136,-8.5997 0.8247,-4.3587 1.7671,-8.1284 1.0602,-3.7697 2.2383,-6.4792 1.178,-2.8273 2.5916,-3.7697 1.1781,-0.8246 4.3588,-1.5314 3.1806,-0.7068 7.4216,-1.1781 4.2409,-0.589 9.0708,-0.9424 4.8299,-0.4712 9.1887,-0.7068 4.3587,-0.3534 7.8928,-0.4712 3.5341,-0.1178 5.1833,-0.1178 2.2383,0 6.008,0.2356 3.8875,0.2356 8.364,0.8246 4.4765,0.4712 9.0709,1.2959 4.5943,0.7068 8.4818,1.767 4.0053,1.0602 6.8326,2.3561 2.8273,1.2958 3.5341,2.8272 0.589,1.2959 1.0602,3.7697 0.589,2.3561 0.9425,5.419 0.3534,3.0629 0.589,6.4792 0.3534,3.4163 0.4712,6.597 0.2356,3.0628 0.3534,5.6545 0.1178,2.5917 0.1178,4.1231 z m -21.0868,3.8875 q 0,-2.356 -0.2356,-4.9477 -0.2356,-2.7095 -1.5314,-4.7121 -0.9425,-1.4137 -4.5944,-2.2383 -3.5341,-0.8246 -7.8928,-1.178 -4.2409,-0.3534 -8.2462,-0.3534 -4.0053,-0.1178 -5.6546,-0.1178 -1.2958,0 -4.5943,0.2356 -3.1807,0.2356 -6.8326,0.8246 -3.5341,0.4712 -6.597,1.2958 -3.0629,0.7069 -3.7697,1.7671 -0.7068,0.8246 -1.178,3.1807 -0.3534,2.2382 -0.7068,4.9477 -0.2356,2.5917 -0.3534,5.0655 -0.1178,2.3561 -0.1178,3.4163 0,0.9425 0,2.8273 0.1178,1.8849 0.3534,3.8875 0.2356,2.0027 0.4712,3.7697 0.3534,1.7671 0.9424,2.5917 0.3534,0.589 2.1205,1.0602 1.767,0.4712 4.2409,0.9425 2.5917,0.3534 5.4189,0.589 2.8273,0.2356 5.419,0.4712 2.7095,0.1178 4.7121,0.2356 2.1205,0 2.9451,0 1.4136,0 4.8299,-0.2356 3.5341,-0.2356 7.3038,-0.7068 3.8875,-0.589 7.0682,-1.2959 3.2985,-0.8246 4.241,-1.8848 0.7068,-0.8246 1.178,-3.4163 0.4712,-2.7095 0.7068,-5.7724 0.2356,-3.1807 0.2356,-6.0079 0.1178,-2.9451 0.1178,-4.241 z"
             inkscape:connector-curvature="0" />
        </g>
      </g>
    </g>
  </g>
  <style
     type="text/css"
     id="style203371">
	.st0{fill:#17182D;}
	.st1{fill:#23253A;}
	.st2{fill:#2C2E42;}
	.st3{fill:#D0110E;}
	.st4{fill:#FEDC25;}
	.st5{fill:#FDBC1D;}
	.st6{fill:#F9DE6B;}
	.st7{fill:#F9E491;}
	.st8{fill:#212333;}
	.st9{fill:#EA365D;}
	.st10{fill:#FF4061;}
	.st11{fill:#F3AA65;}
	.st12{fill:#C17842;}
	.st13{fill:#FABD86;}
	.st14{fill:#935C3E;}
	.st15{fill:#444444;}
	.st16{fill:#333333;}
	.st17{fill:#4D4D4D;}
	.st18{fill:#FFFFFF;}
	.st19{fill:#EFDDDB;}
	.st20{fill:#F9F8F7;}
</style>
</svg>
